<?xml version="1.0" standalone="no"?>
<!DOCTYPE svg PUBLIC "-//W3C//DTD SVG 20010904//EN"
 "http://www.w3.org/TR/2001/REC-SVG-20010904/DTD/svg10.dtd">
<svg version="1.0" xmlns="http://www.w3.org/2000/svg"
 width="260.000000pt" height="260.000000pt" viewBox="0 0 260.000000 260.000000"
 preserveAspectRatio="xMidYMid meet">
<metadata>
Created by potrace 1.11, written by Peter Selinger 2001-2013
</metadata>
<g transform="translate(0.000000,260.000000) scale(0.100000,-0.100000)"
fill="#000000" stroke="none">
<path d="M0 1300 l0 -1300 1300 0 1300 0 0 1300 0 1300 -1300 0 -1300 0 0
-1300z m670 1035 l0 -95 -90 0 -90 0 0 -550 0 -550 230 0 230 0 0 250 0 250
100 0 100 0 0 -345 0 -345 -540 0 -540 0 0 95 0 95 100 0 100 0 0 550 0 550
-100 0 -100 0 0 95 0 95 300 0 300 0 0 -95z m1404 71 c86 -20 141 -52 200
-117 128 -143 111 -414 -35 -529 -43 -33 -141 -80 -169 -80 -6 0 -10 -3 -10
-7 0 -5 57 -126 127 -270 l128 -262 93 -1 92 0 0 -95 0 -95 -158 0 -159 0
-168 345 -169 345 -108 0 -108 0 0 -250 0 -250 95 0 95 0 0 -95 0 -95 -305 0
-305 0 0 95 0 95 100 0 100 0 0 550 0 550 -100 0 -100 0 0 96 0 96 398 -5
c312 -4 412 -8 466 -21z m152 -1657 c156 -28 239 -139 237 -314 -1 -127 -41
-209 -130 -265 -80 -51 -224 -61 -323 -22 -51 20 -106 70 -135 123 -28 51 -30
60 -30 169 0 109 2 118 30 169 65 117 194 169 351 140z m-1756 -54 l0 -55 -50
0 -50 0 0 -200 0 -200 50 0 50 0 0 -55 0 -55 -180 0 -180 0 0 55 0 55 55 0 55
0 0 200 0 200 -55 0 -55 0 0 55 0 55 180 0 180 0 0 -55z m424 -115 c59 -93
112 -172 117 -176 5 -3 9 68 9 170 l0 176 70 0 70 0 0 -310 0 -311 -77 3 -76
3 -122 197 c-66 109 -126 203 -133 210 -9 9 -12 -34 -12 -200 l0 -212 -70 0
-70 0 0 310 0 310 93 0 93 0 108 -170z m866 110 l0 -60 -145 0 -145 0 0 -60 0
-60 135 0 135 0 0 -60 0 -60 -135 0 -135 0 0 -130 0 -130 -75 0 -75 0 0 310 0
310 220 0 220 0 0 -60z"/>
<path d="M1630 2035 l0 -205 150 0 c180 0 239 11 287 53 46 41 64 84 64 157 1
99 -46 164 -136 189 -22 6 -113 11 -202 11 l-163 0 0 -205z"/>
<path d="M2072 620 c-48 -30 -72 -88 -72 -180 0 -132 52 -200 151 -200 97 0
154 74 153 200 0 89 -26 149 -77 180 -42 26 -112 26 -155 0z"/>
</g>
</svg>
